<mxfile host="app.diagrams.net" modified="2021-11-16T11:31:40.185Z" agent="5.0 (Macintosh; Intel Mac OS X 10_15_7) AppleWebKit/537.36 (KHTML, like Gecko) Chrome/95.0.4638.69 Safari/537.36" etag="5aEFaZWU5xjU38HL_apA" version="15.7.3" type="github">
  <diagram id="8IBXChgNCNUfDR89QZ-g" name="Page-1">
    <mxGraphModel dx="4327" dy="2780" grid="1" gridSize="10" guides="1" tooltips="1" connect="1" arrows="1" fold="1" page="1" pageScale="1" pageWidth="827" pageHeight="1169" math="0" shadow="0">
      <root>
        <mxCell id="0" />
        <mxCell id="1" parent="0" />
        <mxCell id="ojHs-oNR0LZqK26bkBzj-3" style="edgeStyle=orthogonalEdgeStyle;rounded=0;orthogonalLoop=1;jettySize=auto;html=1;exitX=1;exitY=0.5;exitDx=0;exitDy=0;entryX=0;entryY=0.5;entryDx=0;entryDy=0;" edge="1" parent="1" source="ojHs-oNR0LZqK26bkBzj-1" target="ojHs-oNR0LZqK26bkBzj-2">
          <mxGeometry relative="1" as="geometry" />
        </mxCell>
        <mxCell id="ojHs-oNR0LZqK26bkBzj-7" style="edgeStyle=orthogonalEdgeStyle;rounded=0;orthogonalLoop=1;jettySize=auto;html=1;exitX=1;exitY=0.5;exitDx=0;exitDy=0;entryX=0;entryY=0.5;entryDx=0;entryDy=0;" edge="1" parent="1" source="ojHs-oNR0LZqK26bkBzj-1" target="ojHs-oNR0LZqK26bkBzj-6">
          <mxGeometry relative="1" as="geometry" />
        </mxCell>
        <mxCell id="ojHs-oNR0LZqK26bkBzj-10" style="edgeStyle=orthogonalEdgeStyle;rounded=0;orthogonalLoop=1;jettySize=auto;html=1;exitX=1;exitY=0.5;exitDx=0;exitDy=0;entryX=0;entryY=0.5;entryDx=0;entryDy=0;" edge="1" parent="1" source="ojHs-oNR0LZqK26bkBzj-1" target="ojHs-oNR0LZqK26bkBzj-9">
          <mxGeometry relative="1" as="geometry" />
        </mxCell>
        <mxCell id="ojHs-oNR0LZqK26bkBzj-44" style="edgeStyle=orthogonalEdgeStyle;rounded=0;orthogonalLoop=1;jettySize=auto;html=1;exitX=1;exitY=0.5;exitDx=0;exitDy=0;entryX=0;entryY=0.5;entryDx=0;entryDy=0;" edge="1" parent="1" source="ojHs-oNR0LZqK26bkBzj-1" target="ojHs-oNR0LZqK26bkBzj-4">
          <mxGeometry relative="1" as="geometry" />
        </mxCell>
        <mxCell id="ojHs-oNR0LZqK26bkBzj-1" value="normalize-url" style="rounded=1;whiteSpace=wrap;html=1;fillColor=#fff2cc;strokeColor=#d6b656;" vertex="1" parent="1">
          <mxGeometry x="40" y="360" width="100" height="40" as="geometry" />
        </mxCell>
        <mxCell id="ojHs-oNR0LZqK26bkBzj-12" style="edgeStyle=orthogonalEdgeStyle;rounded=0;orthogonalLoop=1;jettySize=auto;html=1;exitX=1;exitY=0.5;exitDx=0;exitDy=0;entryX=0;entryY=0.5;entryDx=0;entryDy=0;" edge="1" parent="1" source="ojHs-oNR0LZqK26bkBzj-2" target="ojHs-oNR0LZqK26bkBzj-11">
          <mxGeometry relative="1" as="geometry" />
        </mxCell>
        <mxCell id="ojHs-oNR0LZqK26bkBzj-24" style="edgeStyle=orthogonalEdgeStyle;rounded=0;orthogonalLoop=1;jettySize=auto;html=1;exitX=1;exitY=0.5;exitDx=0;exitDy=0;" edge="1" parent="1" source="ojHs-oNR0LZqK26bkBzj-2" target="ojHs-oNR0LZqK26bkBzj-23">
          <mxGeometry relative="1" as="geometry" />
        </mxCell>
        <mxCell id="ojHs-oNR0LZqK26bkBzj-2" value="&lt;pre style=&quot;background-color: #212121 ; color: #eeffff ; font-family: &amp;#34;menlo&amp;#34; , monospace ; font-size: 9.0pt&quot;&gt;normalize-url@&lt;span style=&quot;color: #f78c6c&quot;&gt;1.9&lt;/span&gt;.&lt;span style=&quot;color: #f78c6c&quot;&gt;1, &lt;/span&gt;, normalize-url@^&lt;span style=&quot;font-family: &amp;#34;menlo&amp;#34; , monospace ; font-size: 9pt ; color: rgb(247 , 140 , 108)&quot;&gt;1.4&lt;/span&gt;&lt;span style=&quot;font-family: &amp;#34;menlo&amp;#34; , monospace ; font-size: 9pt&quot;&gt;.&lt;/span&gt;&lt;span style=&quot;font-family: &amp;#34;menlo&amp;#34; , monospace ; font-size: 9pt ; color: rgb(247 , 140 , 108)&quot;&gt;0&lt;/span&gt;&lt;/pre&gt;" style="rounded=1;whiteSpace=wrap;html=1;fillColor=#f8cecc;strokeColor=#b85450;" vertex="1" parent="1">
          <mxGeometry x="180" y="120" width="320" height="40" as="geometry" />
        </mxCell>
        <mxCell id="ojHs-oNR0LZqK26bkBzj-20" style="edgeStyle=orthogonalEdgeStyle;rounded=0;orthogonalLoop=1;jettySize=auto;html=1;exitX=1;exitY=0.5;exitDx=0;exitDy=0;entryX=0;entryY=0.5;entryDx=0;entryDy=0;" edge="1" parent="1" source="ojHs-oNR0LZqK26bkBzj-4" target="ojHs-oNR0LZqK26bkBzj-17">
          <mxGeometry relative="1" as="geometry" />
        </mxCell>
        <mxCell id="ojHs-oNR0LZqK26bkBzj-4" value="&lt;pre style=&quot;background-color: #212121 ; color: #eeffff ; font-family: &amp;#34;menlo&amp;#34; , monospace ; font-size: 9.0pt&quot;&gt;&lt;pre style=&quot;font-family: &amp;#34;menlo&amp;#34; , monospace ; font-size: 9pt&quot;&gt;normalize-url@&lt;span style=&quot;color: #f78c6c&quot;&gt;2.0&lt;/span&gt;.&lt;span style=&quot;color: #f78c6c&quot;&gt;1&lt;/span&gt;&lt;/pre&gt;&lt;/pre&gt;" style="rounded=1;whiteSpace=wrap;html=1;fillColor=#f8cecc;strokeColor=#b85450;" vertex="1" parent="1">
          <mxGeometry x="270" y="220" width="160" height="40" as="geometry" />
        </mxCell>
        <mxCell id="ojHs-oNR0LZqK26bkBzj-14" style="edgeStyle=orthogonalEdgeStyle;rounded=0;orthogonalLoop=1;jettySize=auto;html=1;exitX=1;exitY=0.5;exitDx=0;exitDy=0;entryX=0;entryY=0.5;entryDx=0;entryDy=0;" edge="1" parent="1" source="ojHs-oNR0LZqK26bkBzj-6" target="ojHs-oNR0LZqK26bkBzj-13">
          <mxGeometry relative="1" as="geometry" />
        </mxCell>
        <mxCell id="ojHs-oNR0LZqK26bkBzj-22" style="edgeStyle=orthogonalEdgeStyle;rounded=0;orthogonalLoop=1;jettySize=auto;html=1;exitX=1;exitY=0.5;exitDx=0;exitDy=0;entryX=0;entryY=0.5;entryDx=0;entryDy=0;" edge="1" parent="1" source="ojHs-oNR0LZqK26bkBzj-6" target="ojHs-oNR0LZqK26bkBzj-21">
          <mxGeometry relative="1" as="geometry" />
        </mxCell>
        <mxCell id="ojHs-oNR0LZqK26bkBzj-6" value="&lt;pre style=&quot;background-color: #212121 ; color: #eeffff ; font-family: &amp;#34;menlo&amp;#34; , monospace ; font-size: 9.0pt&quot;&gt;&lt;pre style=&quot;font-family: &amp;#34;menlo&amp;#34; , monospace ; font-size: 9pt&quot;&gt;&lt;pre style=&quot;font-family: &amp;#34;menlo&amp;#34; , monospace ; font-size: 9pt&quot;&gt;normalize-url@^&lt;span style=&quot;color: #f78c6c&quot;&gt;3.0&lt;/span&gt;.&lt;span style=&quot;color: #f78c6c&quot;&gt;0&lt;/span&gt;, normalize-url@^&lt;span style=&quot;color: #f78c6c&quot;&gt;3.1&lt;/span&gt;.&lt;span style=&quot;color: #f78c6c&quot;&gt;0&lt;/span&gt;&lt;/pre&gt;&lt;/pre&gt;&lt;/pre&gt;" style="rounded=1;whiteSpace=wrap;html=1;fillColor=#f8cecc;strokeColor=#b85450;" vertex="1" parent="1">
          <mxGeometry x="270" y="390" width="320" height="40" as="geometry" />
        </mxCell>
        <mxCell id="ojHs-oNR0LZqK26bkBzj-16" style="edgeStyle=orthogonalEdgeStyle;rounded=0;orthogonalLoop=1;jettySize=auto;html=1;exitX=1;exitY=0.5;exitDx=0;exitDy=0;entryX=0;entryY=0.5;entryDx=0;entryDy=0;" edge="1" parent="1" source="ojHs-oNR0LZqK26bkBzj-9" target="ojHs-oNR0LZqK26bkBzj-15">
          <mxGeometry relative="1" as="geometry" />
        </mxCell>
        <mxCell id="ojHs-oNR0LZqK26bkBzj-9" value="&lt;pre style=&quot;background-color: #212121 ; color: #eeffff ; font-family: &amp;#34;menlo&amp;#34; , monospace ; font-size: 9.0pt&quot;&gt;&lt;pre style=&quot;font-family: &amp;#34;menlo&amp;#34; , monospace ; font-size: 9pt&quot;&gt;&lt;pre style=&quot;font-family: &amp;#34;menlo&amp;#34; , monospace ; font-size: 9pt&quot;&gt;normalize-url@^&lt;span style=&quot;color: #f78c6c&quot;&gt;5.0&lt;/span&gt;.&lt;span style=&quot;color: #f78c6c&quot;&gt;0&lt;/span&gt;&lt;/pre&gt;&lt;/pre&gt;&lt;/pre&gt;" style="rounded=1;whiteSpace=wrap;html=1;fillColor=#f8cecc;strokeColor=#b85450;" vertex="1" parent="1">
          <mxGeometry x="260" y="690" width="160" height="40" as="geometry" />
        </mxCell>
        <mxCell id="ojHs-oNR0LZqK26bkBzj-26" style="edgeStyle=orthogonalEdgeStyle;rounded=0;orthogonalLoop=1;jettySize=auto;html=1;exitX=1;exitY=0.5;exitDx=0;exitDy=0;entryX=0;entryY=0.5;entryDx=0;entryDy=0;" edge="1" parent="1" source="ojHs-oNR0LZqK26bkBzj-11" target="ojHs-oNR0LZqK26bkBzj-25">
          <mxGeometry relative="1" as="geometry" />
        </mxCell>
        <mxCell id="ojHs-oNR0LZqK26bkBzj-11" value="&lt;pre style=&quot;background-color: #212121 ; color: #eeffff ; font-family: &amp;#34;menlo&amp;#34; , monospace ; font-size: 9.0pt&quot;&gt;&lt;pre style=&quot;font-family: &amp;#34;menlo&amp;#34; , monospace ; font-size: 9pt&quot;&gt;postcss-normalize-url@^&lt;span style=&quot;color: #f78c6c&quot;&gt;3.0&lt;/span&gt;.&lt;span style=&quot;color: #f78c6c&quot;&gt;7&lt;/span&gt;&lt;/pre&gt;&lt;/pre&gt;" style="rounded=1;whiteSpace=wrap;html=1;fillColor=#f8cecc;strokeColor=#b85450;" vertex="1" parent="1">
          <mxGeometry x="540" y="160" width="220" height="40" as="geometry" />
        </mxCell>
        <mxCell id="ojHs-oNR0LZqK26bkBzj-64" style="edgeStyle=orthogonalEdgeStyle;rounded=0;orthogonalLoop=1;jettySize=auto;html=1;exitX=1;exitY=0.5;exitDx=0;exitDy=0;entryX=0;entryY=0.5;entryDx=0;entryDy=0;" edge="1" parent="1" source="ojHs-oNR0LZqK26bkBzj-13" target="ojHs-oNR0LZqK26bkBzj-63">
          <mxGeometry relative="1" as="geometry" />
        </mxCell>
        <mxCell id="ojHs-oNR0LZqK26bkBzj-13" value="&lt;pre style=&quot;background-color: #212121 ; color: #eeffff ; font-family: &amp;#34;menlo&amp;#34; , monospace ; font-size: 9.0pt&quot;&gt;&lt;pre style=&quot;font-family: &amp;#34;menlo&amp;#34; , monospace ; font-size: 9pt&quot;&gt;&lt;pre style=&quot;font-family: &amp;#34;menlo&amp;#34; , monospace ; font-size: 9pt&quot;&gt;postcss-normalize-url@^&lt;span style=&quot;color: #f78c6c&quot;&gt;4.0&lt;/span&gt;.&lt;span style=&quot;color: #f78c6c&quot;&gt;1&lt;/span&gt;&lt;/pre&gt;&lt;/pre&gt;&lt;/pre&gt;" style="rounded=1;whiteSpace=wrap;html=1;fillColor=#f8cecc;strokeColor=#b85450;" vertex="1" parent="1">
          <mxGeometry x="650" y="565" width="220" height="40" as="geometry" />
        </mxCell>
        <mxCell id="ojHs-oNR0LZqK26bkBzj-70" style="edgeStyle=orthogonalEdgeStyle;rounded=0;orthogonalLoop=1;jettySize=auto;html=1;exitX=1;exitY=0.5;exitDx=0;exitDy=0;entryX=0;entryY=0.5;entryDx=0;entryDy=0;" edge="1" parent="1" source="ojHs-oNR0LZqK26bkBzj-15" target="ojHs-oNR0LZqK26bkBzj-69">
          <mxGeometry relative="1" as="geometry" />
        </mxCell>
        <mxCell id="ojHs-oNR0LZqK26bkBzj-72" style="edgeStyle=orthogonalEdgeStyle;rounded=0;orthogonalLoop=1;jettySize=auto;html=1;exitX=1;exitY=0.5;exitDx=0;exitDy=0;entryX=0;entryY=0.5;entryDx=0;entryDy=0;" edge="1" parent="1" source="ojHs-oNR0LZqK26bkBzj-15" target="ojHs-oNR0LZqK26bkBzj-71">
          <mxGeometry relative="1" as="geometry" />
        </mxCell>
        <mxCell id="ojHs-oNR0LZqK26bkBzj-15" value="&lt;pre style=&quot;background-color: #212121 ; color: #eeffff ; font-family: &amp;#34;menlo&amp;#34; , monospace ; font-size: 9.0pt&quot;&gt;&lt;pre style=&quot;font-family: &amp;#34;menlo&amp;#34; , monospace ; font-size: 9pt&quot;&gt;&lt;pre style=&quot;font-family: &amp;#34;menlo&amp;#34; , monospace ; font-size: 9pt&quot;&gt;&lt;pre style=&quot;font-family: &amp;#34;menlo&amp;#34; , monospace ; font-size: 9pt&quot;&gt;&lt;span style=&quot;color: #c3e88d&quot;&gt;@semantic-release/npm@^7.0.0&quot;&lt;/span&gt;, &lt;span style=&quot;color: #c3e88d&quot;&gt;&quot;@semantic-release/npm@^7.0.5&lt;/span&gt;&lt;/pre&gt;&lt;/pre&gt;&lt;/pre&gt;&lt;/pre&gt;" style="rounded=1;whiteSpace=wrap;html=1;fillColor=#f8cecc;strokeColor=#b85450;" vertex="1" parent="1">
          <mxGeometry x="460" y="690" width="450" height="40" as="geometry" />
        </mxCell>
        <mxCell id="ojHs-oNR0LZqK26bkBzj-33" style="edgeStyle=orthogonalEdgeStyle;rounded=0;orthogonalLoop=1;jettySize=auto;html=1;exitX=1;exitY=0.5;exitDx=0;exitDy=0;entryX=0;entryY=0.5;entryDx=0;entryDy=0;" edge="1" parent="1" source="ojHs-oNR0LZqK26bkBzj-17" target="ojHs-oNR0LZqK26bkBzj-32">
          <mxGeometry relative="1" as="geometry" />
        </mxCell>
        <mxCell id="ojHs-oNR0LZqK26bkBzj-17" value="&lt;pre style=&quot;background-color: #212121 ; color: #eeffff ; font-family: &amp;#34;menlo&amp;#34; , monospace ; font-size: 9.0pt&quot;&gt;&lt;pre style=&quot;font-family: &amp;#34;menlo&amp;#34; , monospace ; font-size: 9pt&quot;&gt;&lt;pre style=&quot;font-family: &amp;#34;menlo&amp;#34; , monospace ; font-size: 9pt&quot;&gt;cacheable-request@^&lt;span style=&quot;color: #f78c6c&quot;&gt;2.1&lt;/span&gt;.&lt;span style=&quot;color: #f78c6c&quot;&gt;1&lt;/span&gt;&lt;/pre&gt;&lt;/pre&gt;&lt;/pre&gt;" style="rounded=1;whiteSpace=wrap;html=1;fillColor=#f8cecc;strokeColor=#b85450;" vertex="1" parent="1">
          <mxGeometry x="460" y="220" width="190" height="40" as="geometry" />
        </mxCell>
        <mxCell id="ojHs-oNR0LZqK26bkBzj-43" style="edgeStyle=orthogonalEdgeStyle;rounded=0;orthogonalLoop=1;jettySize=auto;html=1;exitX=1;exitY=0.5;exitDx=0;exitDy=0;entryX=0;entryY=0.5;entryDx=0;entryDy=0;" edge="1" parent="1" source="ojHs-oNR0LZqK26bkBzj-21" target="ojHs-oNR0LZqK26bkBzj-42">
          <mxGeometry relative="1" as="geometry" />
        </mxCell>
        <mxCell id="ojHs-oNR0LZqK26bkBzj-21" value="&lt;pre style=&quot;background-color: #212121 ; color: #eeffff ; font-family: &amp;#34;menlo&amp;#34; , monospace ; font-size: 9.0pt&quot;&gt;&lt;pre style=&quot;font-family: &amp;#34;menlo&amp;#34; , monospace ; font-size: 9pt&quot;&gt;&lt;pre style=&quot;font-family: &amp;#34;menlo&amp;#34; , monospace ; font-size: 9pt&quot;&gt;&lt;pre style=&quot;font-family: &amp;#34;menlo&amp;#34; , monospace ; font-size: 9pt&quot;&gt;cacheable-request@^&lt;span style=&quot;color: #f78c6c&quot;&gt;6.0&lt;/span&gt;.&lt;span style=&quot;color: #f78c6c&quot;&gt;0&lt;/span&gt;&lt;/pre&gt;&lt;/pre&gt;&lt;/pre&gt;&lt;/pre&gt;" style="rounded=1;whiteSpace=wrap;html=1;fillColor=#f8cecc;strokeColor=#b85450;" vertex="1" parent="1">
          <mxGeometry x="650" y="340" width="190" height="40" as="geometry" />
        </mxCell>
        <mxCell id="ojHs-oNR0LZqK26bkBzj-31" style="edgeStyle=orthogonalEdgeStyle;rounded=0;orthogonalLoop=1;jettySize=auto;html=1;exitX=1;exitY=0.5;exitDx=0;exitDy=0;entryX=0;entryY=0.5;entryDx=0;entryDy=0;" edge="1" parent="1" source="ojHs-oNR0LZqK26bkBzj-23" target="ojHs-oNR0LZqK26bkBzj-30">
          <mxGeometry relative="1" as="geometry" />
        </mxCell>
        <mxCell id="ojHs-oNR0LZqK26bkBzj-23" value="&lt;pre style=&quot;background-color: #212121 ; color: #eeffff ; font-family: &amp;#34;menlo&amp;#34; , monospace ; font-size: 9.0pt&quot;&gt;&lt;pre style=&quot;font-family: &amp;#34;menlo&amp;#34; , monospace ; font-size: 9pt&quot;&gt;&lt;pre style=&quot;font-family: &amp;#34;menlo&amp;#34; , monospace ; font-size: 9pt&quot;&gt;mini-css-extract-plugin@^&lt;span style=&quot;color: #f78c6c&quot;&gt;0.7&lt;/span&gt;.&lt;span style=&quot;color: #f78c6c&quot;&gt;0&lt;/span&gt;&lt;/pre&gt;&lt;/pre&gt;&lt;/pre&gt;" style="rounded=1;whiteSpace=wrap;html=1;fillColor=#f8cecc;strokeColor=#b85450;" vertex="1" parent="1">
          <mxGeometry x="540" y="90" width="230" height="40" as="geometry" />
        </mxCell>
        <mxCell id="ojHs-oNR0LZqK26bkBzj-29" style="edgeStyle=orthogonalEdgeStyle;rounded=0;orthogonalLoop=1;jettySize=auto;html=1;exitX=1;exitY=0.5;exitDx=0;exitDy=0;entryX=0;entryY=0.5;entryDx=0;entryDy=0;" edge="1" parent="1" source="ojHs-oNR0LZqK26bkBzj-25" target="ojHs-oNR0LZqK26bkBzj-28">
          <mxGeometry relative="1" as="geometry" />
        </mxCell>
        <mxCell id="ojHs-oNR0LZqK26bkBzj-25" value="&lt;pre style=&quot;background-color: #212121 ; color: #eeffff ; font-family: &amp;#34;menlo&amp;#34; , monospace ; font-size: 9.0pt&quot;&gt;&lt;pre style=&quot;font-family: &amp;#34;menlo&amp;#34; , monospace ; font-size: 9pt&quot;&gt;&lt;pre style=&quot;font-family: &amp;#34;menlo&amp;#34; , monospace ; font-size: 9pt&quot;&gt;cssnano@^&lt;span style=&quot;color: #f78c6c&quot;&gt;3.10&lt;/span&gt;.&lt;span style=&quot;color: #f78c6c&quot;&gt;0&lt;/span&gt;, cssnano@^&lt;span style=&quot;color: #f78c6c&quot;&gt;3.7&lt;/span&gt;.&lt;span style=&quot;color: #f78c6c&quot;&gt;4&lt;/span&gt;&lt;/pre&gt;&lt;/pre&gt;&lt;/pre&gt;" style="rounded=1;whiteSpace=wrap;html=1;fillColor=#f8cecc;strokeColor=#b85450;" vertex="1" parent="1">
          <mxGeometry x="800" y="160" width="240" height="40" as="geometry" />
        </mxCell>
        <mxCell id="ojHs-oNR0LZqK26bkBzj-28" value="&lt;pre style=&quot;background-color: #212121 ; color: #eeffff ; font-family: &amp;#34;menlo&amp;#34; , monospace ; font-size: 9.0pt&quot;&gt;&lt;pre style=&quot;font-family: &amp;#34;menlo&amp;#34; , monospace ; font-size: 9pt&quot;&gt;&lt;pre style=&quot;font-family: &amp;#34;menlo&amp;#34; , monospace ; font-size: 9pt&quot;&gt;&lt;pre style=&quot;font-family: &amp;#34;menlo&amp;#34; , monospace ; font-size: 9pt&quot;&gt;css-loader@^&lt;span style=&quot;color: #f78c6c&quot;&gt;0.28&lt;/span&gt;.&lt;span style=&quot;color: #f78c6c&quot;&gt;11&lt;/span&gt;&lt;/pre&gt;&lt;/pre&gt;&lt;/pre&gt;&lt;/pre&gt;" style="rounded=1;whiteSpace=wrap;html=1;fillColor=#f8cecc;strokeColor=#b85450;" vertex="1" parent="1">
          <mxGeometry x="1080" y="160" width="150" height="40" as="geometry" />
        </mxCell>
        <mxCell id="ojHs-oNR0LZqK26bkBzj-30" value="&lt;pre style=&quot;background-color: #212121 ; color: #eeffff ; font-family: &amp;#34;menlo&amp;#34; , monospace ; font-size: 9.0pt&quot;&gt;&lt;pre style=&quot;font-family: &amp;#34;menlo&amp;#34; , monospace ; font-size: 9pt&quot;&gt;&lt;pre style=&quot;font-family: &amp;#34;menlo&amp;#34; , monospace ; font-size: 9pt&quot;&gt;&lt;pre style=&quot;font-family: &amp;#34;menlo&amp;#34; , monospace ; font-size: 9pt&quot;&gt;&lt;span style=&quot;color: #c3e88d&quot;&gt;@storybook/react@^5.3.19&lt;/span&gt;&lt;/pre&gt;&lt;/pre&gt;&lt;/pre&gt;&lt;/pre&gt;" style="rounded=1;whiteSpace=wrap;html=1;fillColor=#f8cecc;strokeColor=#b85450;" vertex="1" parent="1">
          <mxGeometry x="800" y="90" width="190" height="40" as="geometry" />
        </mxCell>
        <mxCell id="ojHs-oNR0LZqK26bkBzj-35" style="edgeStyle=orthogonalEdgeStyle;rounded=0;orthogonalLoop=1;jettySize=auto;html=1;exitX=1;exitY=0.5;exitDx=0;exitDy=0;entryX=0;entryY=0.5;entryDx=0;entryDy=0;" edge="1" parent="1" source="ojHs-oNR0LZqK26bkBzj-32" target="ojHs-oNR0LZqK26bkBzj-34">
          <mxGeometry relative="1" as="geometry" />
        </mxCell>
        <mxCell id="ojHs-oNR0LZqK26bkBzj-32" value="&lt;pre style=&quot;background-color: #212121 ; color: #eeffff ; font-family: &amp;#34;menlo&amp;#34; , monospace ; font-size: 9.0pt&quot;&gt;&lt;pre style=&quot;font-family: &amp;#34;menlo&amp;#34; , monospace ; font-size: 9pt&quot;&gt;&lt;pre style=&quot;font-family: &amp;#34;menlo&amp;#34; , monospace ; font-size: 9pt&quot;&gt;&lt;pre style=&quot;font-family: &amp;#34;menlo&amp;#34; , monospace ; font-size: 9pt&quot;&gt;got@^&lt;span style=&quot;color: #f78c6c&quot;&gt;8.3&lt;/span&gt;.&lt;span style=&quot;color: #f78c6c&quot;&gt;1&lt;/span&gt;&lt;/pre&gt;&lt;/pre&gt;&lt;/pre&gt;&lt;/pre&gt;" style="rounded=1;whiteSpace=wrap;html=1;fillColor=#f8cecc;strokeColor=#b85450;" vertex="1" parent="1">
          <mxGeometry x="680" y="220" width="90" height="40" as="geometry" />
        </mxCell>
        <mxCell id="ojHs-oNR0LZqK26bkBzj-37" style="edgeStyle=orthogonalEdgeStyle;rounded=0;orthogonalLoop=1;jettySize=auto;html=1;exitX=1;exitY=0.5;exitDx=0;exitDy=0;entryX=0;entryY=0.5;entryDx=0;entryDy=0;" edge="1" parent="1" source="ojHs-oNR0LZqK26bkBzj-34" target="ojHs-oNR0LZqK26bkBzj-36">
          <mxGeometry relative="1" as="geometry" />
        </mxCell>
        <mxCell id="ojHs-oNR0LZqK26bkBzj-34" value="&lt;pre style=&quot;background-color: #212121 ; color: #eeffff ; font-family: &amp;#34;menlo&amp;#34; , monospace ; font-size: 9.0pt&quot;&gt;&lt;pre style=&quot;font-family: &amp;#34;menlo&amp;#34; , monospace ; font-size: 9pt&quot;&gt;&lt;pre style=&quot;font-family: &amp;#34;menlo&amp;#34; , monospace ; font-size: 9pt&quot;&gt;&lt;pre style=&quot;font-family: &amp;#34;menlo&amp;#34; , monospace ; font-size: 9pt&quot;&gt;&lt;pre style=&quot;font-family: &amp;#34;menlo&amp;#34; , monospace ; font-size: 9pt&quot;&gt;download@^&lt;span style=&quot;color: #f78c6c&quot;&gt;7.1&lt;/span&gt;.&lt;span style=&quot;color: #f78c6c&quot;&gt;0&lt;/span&gt;&lt;/pre&gt;&lt;/pre&gt;&lt;/pre&gt;&lt;/pre&gt;&lt;/pre&gt;" style="rounded=1;whiteSpace=wrap;html=1;fillColor=#f8cecc;strokeColor=#b85450;" vertex="1" parent="1">
          <mxGeometry x="800" y="220" width="120" height="40" as="geometry" />
        </mxCell>
        <mxCell id="ojHs-oNR0LZqK26bkBzj-39" style="edgeStyle=orthogonalEdgeStyle;rounded=0;orthogonalLoop=1;jettySize=auto;html=1;exitX=1;exitY=0.5;exitDx=0;exitDy=0;entryX=0;entryY=0.5;entryDx=0;entryDy=0;" edge="1" parent="1" source="ojHs-oNR0LZqK26bkBzj-36" target="ojHs-oNR0LZqK26bkBzj-38">
          <mxGeometry relative="1" as="geometry" />
        </mxCell>
        <mxCell id="ojHs-oNR0LZqK26bkBzj-36" value="&lt;pre style=&quot;background-color: #212121 ; color: #eeffff ; font-family: &amp;#34;menlo&amp;#34; , monospace ; font-size: 9.0pt&quot;&gt;&lt;pre style=&quot;font-family: &amp;#34;menlo&amp;#34; , monospace ; font-size: 9pt&quot;&gt;&lt;pre style=&quot;font-family: &amp;#34;menlo&amp;#34; , monospace ; font-size: 9pt&quot;&gt;&lt;pre style=&quot;font-family: &amp;#34;menlo&amp;#34; , monospace ; font-size: 9pt&quot;&gt;&lt;pre style=&quot;font-family: &amp;#34;menlo&amp;#34; , monospace ; font-size: 9pt&quot;&gt;&lt;pre style=&quot;font-family: &amp;#34;menlo&amp;#34; , monospace ; font-size: 9pt&quot;&gt;bin-wrapper@^&lt;span style=&quot;color: #f78c6c&quot;&gt;4.0&lt;/span&gt;.&lt;span style=&quot;color: #f78c6c&quot;&gt;0&lt;/span&gt;&lt;/pre&gt;&lt;/pre&gt;&lt;/pre&gt;&lt;/pre&gt;&lt;/pre&gt;&lt;/pre&gt;" style="rounded=1;whiteSpace=wrap;html=1;fillColor=#f8cecc;strokeColor=#b85450;" vertex="1" parent="1">
          <mxGeometry x="960" y="220" width="150" height="40" as="geometry" />
        </mxCell>
        <mxCell id="ojHs-oNR0LZqK26bkBzj-41" style="edgeStyle=orthogonalEdgeStyle;rounded=0;orthogonalLoop=1;jettySize=auto;html=1;exitX=1;exitY=0.5;exitDx=0;exitDy=0;entryX=0;entryY=0.5;entryDx=0;entryDy=0;" edge="1" parent="1" source="ojHs-oNR0LZqK26bkBzj-38" target="ojHs-oNR0LZqK26bkBzj-40">
          <mxGeometry relative="1" as="geometry" />
        </mxCell>
        <mxCell id="ojHs-oNR0LZqK26bkBzj-38" value="&lt;pre style=&quot;background-color: #212121 ; color: #eeffff ; font-family: &amp;#34;menlo&amp;#34; , monospace ; font-size: 9.0pt&quot;&gt;&lt;pre style=&quot;font-family: &amp;#34;menlo&amp;#34; , monospace ; font-size: 9pt&quot;&gt;&lt;pre style=&quot;font-family: &amp;#34;menlo&amp;#34; , monospace ; font-size: 9pt&quot;&gt;&lt;pre style=&quot;font-family: &amp;#34;menlo&amp;#34; , monospace ; font-size: 9pt&quot;&gt;&lt;pre style=&quot;font-family: &amp;#34;menlo&amp;#34; , monospace ; font-size: 9pt&quot;&gt;&lt;pre style=&quot;font-family: &amp;#34;menlo&amp;#34; , monospace ; font-size: 9pt&quot;&gt;&lt;pre style=&quot;font-family: &amp;#34;menlo&amp;#34; , monospace ; font-size: 9pt&quot;&gt;gifsicle@^&lt;span style=&quot;color: #f78c6c&quot;&gt;5.0&lt;/span&gt;.&lt;span style=&quot;color: #f78c6c&quot;&gt;0&lt;/span&gt;&lt;/pre&gt;&lt;/pre&gt;&lt;/pre&gt;&lt;/pre&gt;&lt;/pre&gt;&lt;/pre&gt;&lt;/pre&gt;" style="rounded=1;whiteSpace=wrap;html=1;fillColor=#f8cecc;strokeColor=#b85450;" vertex="1" parent="1">
          <mxGeometry x="1150" y="220" width="130" height="40" as="geometry" />
        </mxCell>
        <mxCell id="ojHs-oNR0LZqK26bkBzj-40" value="&lt;pre style=&quot;background-color: #212121 ; color: #eeffff ; font-family: &amp;#34;menlo&amp;#34; , monospace ; font-size: 9.0pt&quot;&gt;&lt;pre style=&quot;font-family: &amp;#34;menlo&amp;#34; , monospace ; font-size: 9pt&quot;&gt;&lt;pre style=&quot;font-family: &amp;#34;menlo&amp;#34; , monospace ; font-size: 9pt&quot;&gt;&lt;pre style=&quot;font-family: &amp;#34;menlo&amp;#34; , monospace ; font-size: 9pt&quot;&gt;&lt;pre style=&quot;font-family: &amp;#34;menlo&amp;#34; , monospace ; font-size: 9pt&quot;&gt;&lt;pre style=&quot;font-family: &amp;#34;menlo&amp;#34; , monospace ; font-size: 9pt&quot;&gt;&lt;pre style=&quot;font-family: &amp;#34;menlo&amp;#34; , monospace ; font-size: 9pt&quot;&gt;&lt;span style=&quot;color: rgba(0 , 0 , 0 , 0) ; font-family: monospace ; font-size: 0px ; background-color: rgb(248 , 249 , 250)&quot;&gt;%3CmxGraphModel%3E%3Croot%3E%3CmxCell%20id%3D%220%22%2F%3E%3CmxCell%20id%3D%221%22%20parent%3D%220%22%2F%3E%3CmxCell%20id%3D%222%22%20value%3D%22%26lt%3Bpre%20style%3D%26quot%3Bbackground-color%3A%20%23212121%20%3B%20color%3A%20%23eeffff%20%3B%20font-family%3A%20%26amp%3B%2334%3Bmenlo%26amp%3B%2334%3B%20%2C%20monospace%20%3B%20font-size%3A%209.0pt%26quot%3B%26gt%3B%26lt%3Bpre%20style%3D%26quot%3Bfont-family%3A%20%26amp%3B%2334%3Bmenlo%26amp%3B%2334%3B%20%2C%20monospace%20%3B%20font-size%3A%209pt%26quot%3B%26gt%3B%26lt%3Bpre%20style%3D%26quot%3Bfont-family%3A%20%26amp%3B%2334%3Bmenlo%26amp%3B%2334%3B%20%2C%20monospace%20%3B%20font-size%3A%209pt%26quot%3B%26gt%3B%26lt%3Bpre%20style%3D%26quot%3Bfont-family%3A%20%26amp%3B%2334%3Bmenlo%26amp%3B%2334%3B%20%2C%20monospace%20%3B%20font-size%3A%209pt%26quot%3B%26gt%3B%26lt%3Bpre%20style%3D%26quot%3Bfont-family%3A%20%26amp%3B%2334%3Bmenlo%26amp%3B%2334%3B%20%2C%20monospace%20%3B%20font-size%3A%209pt%26quot%3B%26gt%3B%26lt%3Bpre%20style%3D%26quot%3Bfont-family%3A%20%26amp%3B%2334%3Bmenlo%26amp%3B%2334%3B%20%2C%20monospace%20%3B%20font-size%3A%209pt%26quot%3B%26gt%3B%26lt%3Bpre%20style%3D%26quot%3Bfont-family%3A%20%26amp%3B%2334%3Bmenlo%26amp%3B%2334%3B%20%2C%20monospace%20%3B%20font-size%3A%209pt%26quot%3B%26gt%3Bgifsicle%40%5E%26lt%3Bspan%20style%3D%26quot%3Bcolor%3A%20%23f78c6c%26quot%3B%26gt%3B5.0%26lt%3B%2Fspan%26gt%3B.%26lt%3Bspan%20style%3D%26quot%3Bcolor%3A%20%23f78c6c%26quot%3B%26gt%3B0%26lt%3B%2Fspan%26gt%3B%26lt%3B%2Fpre%26gt%3B%26lt%3B%2Fpre%26gt%3B%26lt%3B%2Fpre%26gt%3B%26lt%3B%2Fpre%26gt%3B%26lt%3B%2Fpre%26gt%3B%26lt%3B%2Fpre%26gt%3B%26lt%3B%2Fpre%26gt%3B%22%20style%3D%22rounded%3D1%3BwhiteSpace%3Dwrap%3Bhtml%3D1%3BfillColor%3D%23f8cecc%3BstrokeColor%3D%23b85450%3B%22%20vertex%3D%221%22%20parent%3D%221%22%3E%3CmxGeometry%20x%3D%221150%22%20y%3D%22220%22%20width%3D%22130%22%20height%3D%2240%22%20as%3D%22geometry%22%2F%3E%3C%2FmxCell%3E%3C%2Froot%3E%3C%2FmxGraphModel%3E&lt;/span&gt;imagemin-gifsicle@^&lt;span style=&quot;font-family: &amp;#34;menlo&amp;#34; , monospace ; font-size: 9pt ; color: rgb(247 , 140 , 108)&quot;&gt;7.0&lt;/span&gt;&lt;span style=&quot;font-family: &amp;#34;menlo&amp;#34; , monospace ; font-size: 9pt&quot;&gt;.&lt;/span&gt;&lt;span style=&quot;font-family: &amp;#34;menlo&amp;#34; , monospace ; font-size: 9pt ; color: rgb(247 , 140 , 108)&quot;&gt;0&lt;br/&gt;&lt;/span&gt;Published&amp;nbsp;&lt;time title=&quot;1/21/2020, 9:25:53 AM&quot; style=&quot;box-sizing: border-box ; color: rgba(0 , 0 , 0 , 0.8) ; font-family: &amp;#34;fira mono&amp;#34; , &amp;#34;andale mono&amp;#34; , &amp;#34;consolas&amp;#34; , monospace ; font-size: 14px ; background-color: rgb(255 , 255 , 255)&quot;&gt;2 years ago&lt;/time&gt;&lt;br&gt;&lt;/pre&gt;&lt;/pre&gt;&lt;/pre&gt;&lt;/pre&gt;&lt;/pre&gt;&lt;/pre&gt;&lt;/pre&gt;" style="rounded=1;whiteSpace=wrap;html=1;fillColor=#f8cecc;strokeColor=#b85450;" vertex="1" parent="1">
          <mxGeometry x="1320" y="220" width="200" height="40" as="geometry" />
        </mxCell>
        <mxCell id="ojHs-oNR0LZqK26bkBzj-46" style="edgeStyle=orthogonalEdgeStyle;rounded=0;orthogonalLoop=1;jettySize=auto;html=1;exitX=1;exitY=0.5;exitDx=0;exitDy=0;entryX=0;entryY=0.5;entryDx=0;entryDy=0;" edge="1" parent="1" source="ojHs-oNR0LZqK26bkBzj-42" target="ojHs-oNR0LZqK26bkBzj-45">
          <mxGeometry relative="1" as="geometry" />
        </mxCell>
        <mxCell id="ojHs-oNR0LZqK26bkBzj-48" style="edgeStyle=orthogonalEdgeStyle;rounded=0;orthogonalLoop=1;jettySize=auto;html=1;exitX=1;exitY=0.5;exitDx=0;exitDy=0;entryX=0;entryY=0.5;entryDx=0;entryDy=0;" edge="1" parent="1" source="ojHs-oNR0LZqK26bkBzj-42" target="ojHs-oNR0LZqK26bkBzj-47">
          <mxGeometry relative="1" as="geometry" />
        </mxCell>
        <mxCell id="ojHs-oNR0LZqK26bkBzj-50" style="edgeStyle=orthogonalEdgeStyle;rounded=0;orthogonalLoop=1;jettySize=auto;html=1;exitX=1;exitY=0.5;exitDx=0;exitDy=0;entryX=0;entryY=0.5;entryDx=0;entryDy=0;" edge="1" parent="1" source="ojHs-oNR0LZqK26bkBzj-42" target="ojHs-oNR0LZqK26bkBzj-49">
          <mxGeometry relative="1" as="geometry" />
        </mxCell>
        <mxCell id="ojHs-oNR0LZqK26bkBzj-42" value="&lt;pre style=&quot;background-color: #212121 ; color: #eeffff ; font-family: &amp;#34;menlo&amp;#34; , monospace ; font-size: 9.0pt&quot;&gt;&lt;pre style=&quot;font-family: &amp;#34;menlo&amp;#34; , monospace ; font-size: 9pt&quot;&gt;&lt;pre style=&quot;font-family: &amp;#34;menlo&amp;#34; , monospace ; font-size: 9pt&quot;&gt;&lt;pre style=&quot;font-family: &amp;#34;menlo&amp;#34; , monospace ; font-size: 9pt&quot;&gt;&lt;pre style=&quot;font-family: &amp;#34;menlo&amp;#34; , monospace ; font-size: 9pt&quot;&gt;got@^&lt;span style=&quot;color: #f78c6c&quot;&gt;9.5&lt;/span&gt;.&lt;span style=&quot;color: #f78c6c&quot;&gt;0&lt;/span&gt;, got@^&lt;span style=&quot;color: #f78c6c&quot;&gt;9.6&lt;/span&gt;.&lt;span style=&quot;color: #f78c6c&quot;&gt;0&lt;/span&gt;&lt;/pre&gt;&lt;/pre&gt;&lt;/pre&gt;&lt;/pre&gt;&lt;/pre&gt;" style="rounded=1;whiteSpace=wrap;html=1;fillColor=#f8cecc;strokeColor=#b85450;" vertex="1" parent="1">
          <mxGeometry x="880" y="340" width="180" height="40" as="geometry" />
        </mxCell>
        <mxCell id="ojHs-oNR0LZqK26bkBzj-45" value="&lt;pre style=&quot;background-color: #212121 ; color: #eeffff ; font-family: &amp;#34;menlo&amp;#34; , monospace ; font-size: 9.0pt&quot;&gt;&lt;pre style=&quot;font-family: &amp;#34;menlo&amp;#34; , monospace ; font-size: 9pt&quot;&gt;&lt;pre style=&quot;font-family: &amp;#34;menlo&amp;#34; , monospace ; font-size: 9pt&quot;&gt;&lt;pre style=&quot;font-family: &amp;#34;menlo&amp;#34; , monospace ; font-size: 9pt&quot;&gt;&lt;pre style=&quot;font-family: &amp;#34;menlo&amp;#34; , monospace ; font-size: 9pt&quot;&gt;&lt;pre style=&quot;font-family: &amp;#34;menlo&amp;#34; , monospace ; font-size: 9pt&quot;&gt;gh-got@^&lt;span style=&quot;color: #f78c6c&quot;&gt;8.1&lt;/span&gt;.&lt;span style=&quot;color: #f78c6c&quot;&gt;0&lt;/span&gt;&lt;/pre&gt;&lt;/pre&gt;&lt;/pre&gt;&lt;/pre&gt;&lt;/pre&gt;&lt;/pre&gt;" style="rounded=1;whiteSpace=wrap;html=1;fillColor=#f8cecc;strokeColor=#b85450;" vertex="1" parent="1">
          <mxGeometry x="1100" y="290" width="110" height="40" as="geometry" />
        </mxCell>
        <mxCell id="ojHs-oNR0LZqK26bkBzj-52" style="edgeStyle=orthogonalEdgeStyle;rounded=0;orthogonalLoop=1;jettySize=auto;html=1;exitX=1;exitY=0.5;exitDx=0;exitDy=0;entryX=0;entryY=0.5;entryDx=0;entryDy=0;" edge="1" parent="1" source="ojHs-oNR0LZqK26bkBzj-47" target="ojHs-oNR0LZqK26bkBzj-51">
          <mxGeometry relative="1" as="geometry" />
        </mxCell>
        <mxCell id="ojHs-oNR0LZqK26bkBzj-47" value="&lt;pre style=&quot;background-color: #212121 ; color: #eeffff ; font-family: &amp;#34;menlo&amp;#34; , monospace ; font-size: 9.0pt&quot;&gt;&lt;pre style=&quot;font-family: &amp;#34;menlo&amp;#34; , monospace ; font-size: 9pt&quot;&gt;&lt;pre style=&quot;font-family: &amp;#34;menlo&amp;#34; , monospace ; font-size: 9pt&quot;&gt;&lt;pre style=&quot;font-family: &amp;#34;menlo&amp;#34; , monospace ; font-size: 9pt&quot;&gt;&lt;pre style=&quot;font-family: &amp;#34;menlo&amp;#34; , monospace ; font-size: 9pt&quot;&gt;&lt;pre style=&quot;font-family: &amp;#34;menlo&amp;#34; , monospace ; font-size: 9pt&quot;&gt;package-json@^&lt;span style=&quot;color: #f78c6c&quot;&gt;6.3&lt;/span&gt;.&lt;span style=&quot;color: #f78c6c&quot;&gt;0&lt;/span&gt;&lt;/pre&gt;&lt;/pre&gt;&lt;/pre&gt;&lt;/pre&gt;&lt;/pre&gt;&lt;/pre&gt;" style="rounded=1;whiteSpace=wrap;html=1;fillColor=#f8cecc;strokeColor=#b85450;" vertex="1" parent="1">
          <mxGeometry x="1100" y="360" width="150" height="40" as="geometry" />
        </mxCell>
        <mxCell id="ojHs-oNR0LZqK26bkBzj-54" style="edgeStyle=orthogonalEdgeStyle;rounded=0;orthogonalLoop=1;jettySize=auto;html=1;exitX=1;exitY=0.5;exitDx=0;exitDy=0;" edge="1" parent="1" source="ojHs-oNR0LZqK26bkBzj-49" target="ojHs-oNR0LZqK26bkBzj-53">
          <mxGeometry relative="1" as="geometry" />
        </mxCell>
        <mxCell id="ojHs-oNR0LZqK26bkBzj-49" value="&lt;pre style=&quot;background-color: #212121 ; color: #eeffff ; font-family: &amp;#34;menlo&amp;#34; , monospace ; font-size: 9.0pt&quot;&gt;&lt;pre style=&quot;font-family: &amp;#34;menlo&amp;#34; , monospace ; font-size: 9pt&quot;&gt;&lt;pre style=&quot;font-family: &amp;#34;menlo&amp;#34; , monospace ; font-size: 9pt&quot;&gt;&lt;pre style=&quot;font-family: &amp;#34;menlo&amp;#34; , monospace ; font-size: 9pt&quot;&gt;&lt;pre style=&quot;font-family: &amp;#34;menlo&amp;#34; , monospace ; font-size: 9pt&quot;&gt;&lt;pre style=&quot;font-family: &amp;#34;menlo&amp;#34; , monospace ; font-size: 9pt&quot;&gt;&lt;pre style=&quot;font-family: &amp;#34;menlo&amp;#34; , monospace ; font-size: 9pt&quot;&gt;&lt;span style=&quot;color: #c3e88d&quot;&gt;&quot;@electron/get@^1.0.1&quot;&lt;/span&gt;, &lt;span style=&quot;color: #c3e88d&quot;&gt;&quot;@electron/get@^1.6.0&quot;&lt;/span&gt;&lt;/pre&gt;&lt;/pre&gt;&lt;/pre&gt;&lt;/pre&gt;&lt;/pre&gt;&lt;/pre&gt;&lt;/pre&gt;" style="rounded=1;whiteSpace=wrap;html=1;fillColor=#f8cecc;strokeColor=#b85450;" vertex="1" parent="1">
          <mxGeometry x="1100" y="430" width="350" height="40" as="geometry" />
        </mxCell>
        <mxCell id="ojHs-oNR0LZqK26bkBzj-58" style="edgeStyle=orthogonalEdgeStyle;rounded=0;orthogonalLoop=1;jettySize=auto;html=1;exitX=1;exitY=0.5;exitDx=0;exitDy=0;entryX=0;entryY=0.5;entryDx=0;entryDy=0;" edge="1" parent="1" source="ojHs-oNR0LZqK26bkBzj-51" target="ojHs-oNR0LZqK26bkBzj-57">
          <mxGeometry relative="1" as="geometry" />
        </mxCell>
        <mxCell id="ojHs-oNR0LZqK26bkBzj-51" value="&lt;pre style=&quot;background-color: #212121 ; color: #eeffff ; font-family: &amp;#34;menlo&amp;#34; , monospace ; font-size: 9.0pt&quot;&gt;&lt;pre style=&quot;font-family: &amp;#34;menlo&amp;#34; , monospace ; font-size: 9pt&quot;&gt;&lt;pre style=&quot;font-family: &amp;#34;menlo&amp;#34; , monospace ; font-size: 9pt&quot;&gt;&lt;pre style=&quot;font-family: &amp;#34;menlo&amp;#34; , monospace ; font-size: 9pt&quot;&gt;&lt;pre style=&quot;font-family: &amp;#34;menlo&amp;#34; , monospace ; font-size: 9pt&quot;&gt;&lt;pre style=&quot;font-family: &amp;#34;menlo&amp;#34; , monospace ; font-size: 9pt&quot;&gt;&lt;pre style=&quot;font-family: &amp;#34;menlo&amp;#34; , monospace ; font-size: 9pt&quot;&gt;latest-version@^&lt;span style=&quot;color: #f78c6c&quot;&gt;5.0&lt;/span&gt;.&lt;span style=&quot;color: #f78c6c&quot;&gt;0&lt;/span&gt;, latest-version@^&lt;span style=&quot;color: #f78c6c&quot;&gt;5.1&lt;/span&gt;.&lt;span style=&quot;color: #f78c6c&quot;&gt;0&lt;/span&gt;&lt;/pre&gt;&lt;/pre&gt;&lt;/pre&gt;&lt;/pre&gt;&lt;/pre&gt;&lt;/pre&gt;&lt;/pre&gt;" style="rounded=1;whiteSpace=wrap;html=1;fillColor=#f8cecc;strokeColor=#b85450;" vertex="1" parent="1">
          <mxGeometry x="1285" y="360" width="335" height="40" as="geometry" />
        </mxCell>
        <mxCell id="ojHs-oNR0LZqK26bkBzj-53" value="&lt;pre style=&quot;background-color: #212121 ; color: #eeffff ; font-family: &amp;#34;menlo&amp;#34; , monospace ; font-size: 9.0pt&quot;&gt;&lt;pre style=&quot;font-family: &amp;#34;menlo&amp;#34; , monospace ; font-size: 9pt&quot;&gt;&lt;pre style=&quot;font-family: &amp;#34;menlo&amp;#34; , monospace ; font-size: 9pt&quot;&gt;&lt;pre style=&quot;font-family: &amp;#34;menlo&amp;#34; , monospace ; font-size: 9pt&quot;&gt;&lt;pre style=&quot;font-family: &amp;#34;menlo&amp;#34; , monospace ; font-size: 9pt&quot;&gt;&lt;pre style=&quot;font-family: &amp;#34;menlo&amp;#34; , monospace ; font-size: 9pt&quot;&gt;&lt;pre style=&quot;font-family: &amp;#34;menlo&amp;#34; , monospace ; font-size: 9pt&quot;&gt;&lt;pre style=&quot;font-family: &amp;#34;menlo&amp;#34; , monospace ; font-size: 9pt&quot;&gt;electron-packager@^&lt;span style=&quot;color: #f78c6c&quot;&gt;15.1&lt;/span&gt;.&lt;span style=&quot;color: #f78c6c&quot;&gt;0&lt;/span&gt;&lt;/pre&gt;&lt;/pre&gt;&lt;/pre&gt;&lt;/pre&gt;&lt;/pre&gt;&lt;/pre&gt;&lt;/pre&gt;&lt;/pre&gt;" style="rounded=1;whiteSpace=wrap;html=1;fillColor=#f8cecc;strokeColor=#b85450;" vertex="1" parent="1">
          <mxGeometry x="1480" y="430" width="200" height="40" as="geometry" />
        </mxCell>
        <mxCell id="ojHs-oNR0LZqK26bkBzj-60" style="edgeStyle=orthogonalEdgeStyle;rounded=0;orthogonalLoop=1;jettySize=auto;html=1;exitX=1;exitY=0.5;exitDx=0;exitDy=0;entryX=0;entryY=0.5;entryDx=0;entryDy=0;" edge="1" parent="1" source="ojHs-oNR0LZqK26bkBzj-57" target="ojHs-oNR0LZqK26bkBzj-59">
          <mxGeometry relative="1" as="geometry">
            <mxPoint x="1860" y="380" as="targetPoint" />
          </mxGeometry>
        </mxCell>
        <mxCell id="ojHs-oNR0LZqK26bkBzj-57" value="&lt;pre style=&quot;background-color: #212121 ; color: #eeffff ; font-family: &amp;#34;menlo&amp;#34; , monospace ; font-size: 9.0pt&quot;&gt;&lt;pre style=&quot;font-family: &amp;#34;menlo&amp;#34; , monospace ; font-size: 9pt&quot;&gt;&lt;pre style=&quot;font-family: &amp;#34;menlo&amp;#34; , monospace ; font-size: 9pt&quot;&gt;&lt;pre style=&quot;font-family: &amp;#34;menlo&amp;#34; , monospace ; font-size: 9pt&quot;&gt;&lt;pre style=&quot;font-family: &amp;#34;menlo&amp;#34; , monospace ; font-size: 9pt&quot;&gt;&lt;pre style=&quot;font-family: &amp;#34;menlo&amp;#34; , monospace ; font-size: 9pt&quot;&gt;&lt;pre style=&quot;font-family: &amp;#34;menlo&amp;#34; , monospace ; font-size: 9pt&quot;&gt;&lt;pre style=&quot;font-family: &amp;#34;menlo&amp;#34; , monospace ; font-size: 9pt&quot;&gt;&lt;pre style=&quot;font-family: &amp;#34;menlo&amp;#34; , monospace ; font-size: 9pt&quot;&gt;update-notifier@^&lt;span style=&quot;color: #f78c6c&quot;&gt;5.0&lt;/span&gt;.&lt;span style=&quot;color: #f78c6c&quot;&gt;1&lt;/span&gt;&lt;/pre&gt;&lt;/pre&gt;&lt;/pre&gt;&lt;/pre&gt;&lt;/pre&gt;&lt;/pre&gt;&lt;/pre&gt;&lt;/pre&gt;&lt;/pre&gt;" style="rounded=1;whiteSpace=wrap;html=1;fillColor=#f8cecc;strokeColor=#b85450;" vertex="1" parent="1">
          <mxGeometry x="1660" y="360" width="170" height="40" as="geometry" />
        </mxCell>
        <mxCell id="ojHs-oNR0LZqK26bkBzj-59" value="&lt;pre style=&quot;background-color: #212121 ; color: #eeffff ; font-family: &amp;#34;menlo&amp;#34; , monospace ; font-size: 9.0pt&quot;&gt;&lt;pre style=&quot;font-family: &amp;#34;menlo&amp;#34; , monospace ; font-size: 9pt&quot;&gt;&lt;pre style=&quot;font-family: &amp;#34;menlo&amp;#34; , monospace ; font-size: 9pt&quot;&gt;&lt;pre style=&quot;font-family: &amp;#34;menlo&amp;#34; , monospace ; font-size: 9pt&quot;&gt;&lt;pre style=&quot;font-family: &amp;#34;menlo&amp;#34; , monospace ; font-size: 9pt&quot;&gt;&lt;pre style=&quot;font-family: &amp;#34;menlo&amp;#34; , monospace ; font-size: 9pt&quot;&gt;&lt;pre style=&quot;font-family: &amp;#34;menlo&amp;#34; , monospace ; font-size: 9pt&quot;&gt;&lt;pre style=&quot;font-family: &amp;#34;menlo&amp;#34; , monospace ; font-size: 9pt&quot;&gt;&lt;pre style=&quot;font-family: &amp;#34;menlo&amp;#34; , monospace ; font-size: 9pt&quot;&gt;&lt;pre style=&quot;font-family: &amp;#34;menlo&amp;#34; , monospace ; font-size: 9pt&quot;&gt;json-server@^&lt;span style=&quot;color: #f78c6c&quot;&gt;0.16&lt;/span&gt;.&lt;span style=&quot;color: #f78c6c&quot;&gt;3&lt;/span&gt;&lt;/pre&gt;&lt;/pre&gt;&lt;/pre&gt;&lt;/pre&gt;&lt;/pre&gt;&lt;/pre&gt;&lt;/pre&gt;&lt;/pre&gt;&lt;/pre&gt;&lt;/pre&gt;" style="rounded=1;whiteSpace=wrap;html=1;fillColor=#f8cecc;strokeColor=#b85450;" vertex="1" parent="1">
          <mxGeometry x="1870" y="360" width="150" height="40" as="geometry" />
        </mxCell>
        <mxCell id="ojHs-oNR0LZqK26bkBzj-66" style="edgeStyle=orthogonalEdgeStyle;rounded=0;orthogonalLoop=1;jettySize=auto;html=1;exitX=1;exitY=0.5;exitDx=0;exitDy=0;entryX=0;entryY=0.5;entryDx=0;entryDy=0;" edge="1" parent="1" source="ojHs-oNR0LZqK26bkBzj-63" target="ojHs-oNR0LZqK26bkBzj-65">
          <mxGeometry relative="1" as="geometry" />
        </mxCell>
        <mxCell id="ojHs-oNR0LZqK26bkBzj-63" value="&lt;pre style=&quot;background-color: #212121 ; color: #eeffff ; font-family: &amp;#34;menlo&amp;#34; , monospace ; font-size: 9.0pt&quot;&gt;&lt;pre style=&quot;font-family: &amp;#34;menlo&amp;#34; , monospace ; font-size: 9pt&quot;&gt;&lt;pre style=&quot;font-family: &amp;#34;menlo&amp;#34; , monospace ; font-size: 9pt&quot;&gt;&lt;pre style=&quot;font-family: &amp;#34;menlo&amp;#34; , monospace ; font-size: 9pt&quot;&gt;cssnano-preset-default@^&lt;span style=&quot;color: #f78c6c&quot;&gt;4.0&lt;/span&gt;.&lt;span style=&quot;color: #f78c6c&quot;&gt;5&lt;/span&gt;&lt;/pre&gt;&lt;/pre&gt;&lt;/pre&gt;&lt;/pre&gt;" style="rounded=1;whiteSpace=wrap;html=1;fillColor=#f8cecc;strokeColor=#b85450;" vertex="1" parent="1">
          <mxGeometry x="910" y="565" width="220" height="40" as="geometry" />
        </mxCell>
        <mxCell id="ojHs-oNR0LZqK26bkBzj-68" style="edgeStyle=orthogonalEdgeStyle;rounded=0;orthogonalLoop=1;jettySize=auto;html=1;exitX=1;exitY=0.5;exitDx=0;exitDy=0;entryX=0;entryY=0.5;entryDx=0;entryDy=0;" edge="1" parent="1" source="ojHs-oNR0LZqK26bkBzj-65" target="ojHs-oNR0LZqK26bkBzj-67">
          <mxGeometry relative="1" as="geometry" />
        </mxCell>
        <mxCell id="ojHs-oNR0LZqK26bkBzj-65" value="&lt;pre style=&quot;background-color: #212121 ; color: #eeffff ; font-family: &amp;#34;menlo&amp;#34; , monospace ; font-size: 9.0pt&quot;&gt;&lt;pre style=&quot;font-family: &amp;#34;menlo&amp;#34; , monospace ; font-size: 9pt&quot;&gt;&lt;pre style=&quot;font-family: &amp;#34;menlo&amp;#34; , monospace ; font-size: 9pt&quot;&gt;&lt;pre style=&quot;font-family: &amp;#34;menlo&amp;#34; , monospace ; font-size: 9pt&quot;&gt;&lt;pre style=&quot;font-family: &amp;#34;menlo&amp;#34; , monospace ; font-size: 9pt&quot;&gt;cssnano@^&lt;span style=&quot;color: #f78c6c&quot;&gt;4.1&lt;/span&gt;.&lt;span style=&quot;color: #f78c6c&quot;&gt;0&lt;/span&gt;&lt;/pre&gt;&lt;/pre&gt;&lt;/pre&gt;&lt;/pre&gt;&lt;/pre&gt;" style="rounded=1;whiteSpace=wrap;html=1;fillColor=#f8cecc;strokeColor=#b85450;" vertex="1" parent="1">
          <mxGeometry x="1165" y="565" width="115" height="40" as="geometry" />
        </mxCell>
        <mxCell id="ojHs-oNR0LZqK26bkBzj-67" value="&lt;pre style=&quot;background-color: #212121 ; color: #eeffff ; font-family: &amp;#34;menlo&amp;#34; , monospace ; font-size: 9.0pt&quot;&gt;&lt;pre style=&quot;font-family: &amp;#34;menlo&amp;#34; , monospace ; font-size: 9pt&quot;&gt;&lt;pre style=&quot;font-family: &amp;#34;menlo&amp;#34; , monospace ; font-size: 9pt&quot;&gt;&lt;pre style=&quot;font-family: &amp;#34;menlo&amp;#34; , monospace ; font-size: 9pt&quot;&gt;&lt;pre style=&quot;font-family: &amp;#34;menlo&amp;#34; , monospace ; font-size: 9pt&quot;&gt;&lt;pre style=&quot;font-family: &amp;#34;menlo&amp;#34; , monospace ; font-size: 9pt&quot;&gt;optimize-css-assets-webpack-plugin@^&lt;span style=&quot;color: #f78c6c&quot;&gt;5.0&lt;/span&gt;.&lt;span style=&quot;color: #f78c6c&quot;&gt;1&lt;/span&gt;&lt;/pre&gt;&lt;/pre&gt;&lt;/pre&gt;&lt;/pre&gt;&lt;/pre&gt;&lt;/pre&gt;" style="rounded=1;whiteSpace=wrap;html=1;fillColor=#f8cecc;strokeColor=#b85450;" vertex="1" parent="1">
          <mxGeometry x="1320" y="565" width="310" height="40" as="geometry" />
        </mxCell>
        <mxCell id="ojHs-oNR0LZqK26bkBzj-69" value="&lt;pre style=&quot;background-color: #212121 ; color: #eeffff ; font-family: &amp;#34;menlo&amp;#34; , monospace ; font-size: 9.0pt&quot;&gt;&lt;pre style=&quot;font-family: &amp;#34;menlo&amp;#34; , monospace ; font-size: 9pt&quot;&gt;&lt;pre style=&quot;font-family: &amp;#34;menlo&amp;#34; , monospace ; font-size: 9pt&quot;&gt;&lt;pre style=&quot;font-family: &amp;#34;menlo&amp;#34; , monospace ; font-size: 9pt&quot;&gt;&lt;pre style=&quot;font-family: &amp;#34;menlo&amp;#34; , monospace ; font-size: 9pt&quot;&gt;semantic-release@^&lt;span style=&quot;color: #f78c6c&quot;&gt;17.0&lt;/span&gt;.&lt;span style=&quot;color: #f78c6c&quot;&gt;7&lt;/span&gt;&lt;/pre&gt;&lt;/pre&gt;&lt;/pre&gt;&lt;/pre&gt;&lt;/pre&gt;" style="rounded=1;whiteSpace=wrap;html=1;fillColor=#f8cecc;strokeColor=#b85450;" vertex="1" parent="1">
          <mxGeometry x="1090" y="690" width="200" height="40" as="geometry" />
        </mxCell>
        <mxCell id="ojHs-oNR0LZqK26bkBzj-73" style="edgeStyle=orthogonalEdgeStyle;rounded=0;orthogonalLoop=1;jettySize=auto;html=1;exitX=0.5;exitY=0;exitDx=0;exitDy=0;entryX=0.55;entryY=1.125;entryDx=0;entryDy=0;entryPerimeter=0;" edge="1" parent="1" source="ojHs-oNR0LZqK26bkBzj-71" target="ojHs-oNR0LZqK26bkBzj-69">
          <mxGeometry relative="1" as="geometry" />
        </mxCell>
        <mxCell id="ojHs-oNR0LZqK26bkBzj-75" style="edgeStyle=orthogonalEdgeStyle;rounded=0;orthogonalLoop=1;jettySize=auto;html=1;exitX=1;exitY=0.5;exitDx=0;exitDy=0;entryX=0;entryY=0.5;entryDx=0;entryDy=0;" edge="1" parent="1" source="ojHs-oNR0LZqK26bkBzj-71" target="ojHs-oNR0LZqK26bkBzj-74">
          <mxGeometry relative="1" as="geometry" />
        </mxCell>
        <mxCell id="ojHs-oNR0LZqK26bkBzj-71" value="&lt;pre style=&quot;background-color: #212121 ; color: #eeffff ; font-family: &amp;#34;menlo&amp;#34; , monospace ; font-size: 9.0pt&quot;&gt;&lt;pre style=&quot;font-family: &amp;#34;menlo&amp;#34; , monospace ; font-size: 9pt&quot;&gt;&lt;pre style=&quot;font-family: &amp;#34;menlo&amp;#34; , monospace ; font-size: 9pt&quot;&gt;&lt;pre style=&quot;font-family: &amp;#34;menlo&amp;#34; , monospace ; font-size: 9pt&quot;&gt;&lt;pre style=&quot;font-family: &amp;#34;menlo&amp;#34; , monospace ; font-size: 9pt&quot;&gt;&lt;span style=&quot;color: #c3e88d&quot;&gt;&quot;@open-rpc/meta-schema@^1.7.3&quot;&lt;/span&gt;, &lt;span style=&quot;color: #c3e88d&quot;&gt;&quot;@open-rpc/meta-schema@^1.8.0&quot;&lt;/span&gt;&lt;/pre&gt;&lt;/pre&gt;&lt;/pre&gt;&lt;/pre&gt;&lt;/pre&gt;" style="rounded=1;whiteSpace=wrap;html=1;fillColor=#f8cecc;strokeColor=#b85450;" vertex="1" parent="1">
          <mxGeometry x="970" y="800" width="460" height="40" as="geometry" />
        </mxCell>
        <mxCell id="ojHs-oNR0LZqK26bkBzj-77" style="edgeStyle=orthogonalEdgeStyle;rounded=0;orthogonalLoop=1;jettySize=auto;html=1;exitX=1;exitY=0.5;exitDx=0;exitDy=0;entryX=0;entryY=0.5;entryDx=0;entryDy=0;" edge="1" parent="1" source="ojHs-oNR0LZqK26bkBzj-74" target="ojHs-oNR0LZqK26bkBzj-76">
          <mxGeometry relative="1" as="geometry" />
        </mxCell>
        <mxCell id="ojHs-oNR0LZqK26bkBzj-79" style="edgeStyle=orthogonalEdgeStyle;rounded=0;orthogonalLoop=1;jettySize=auto;html=1;exitX=1;exitY=0.5;exitDx=0;exitDy=0;entryX=0;entryY=0.5;entryDx=0;entryDy=0;" edge="1" parent="1" source="ojHs-oNR0LZqK26bkBzj-74" target="ojHs-oNR0LZqK26bkBzj-78">
          <mxGeometry relative="1" as="geometry" />
        </mxCell>
        <mxCell id="ojHs-oNR0LZqK26bkBzj-74" value="&lt;pre style=&quot;background-color: #212121 ; color: #eeffff ; font-family: &amp;#34;menlo&amp;#34; , monospace ; font-size: 9.0pt&quot;&gt;&lt;pre style=&quot;font-family: &amp;#34;menlo&amp;#34; , monospace ; font-size: 9pt&quot;&gt;&lt;pre style=&quot;font-family: &amp;#34;menlo&amp;#34; , monospace ; font-size: 9pt&quot;&gt;&lt;pre style=&quot;font-family: &amp;#34;menlo&amp;#34; , monospace ; font-size: 9pt&quot;&gt;&lt;pre style=&quot;font-family: &amp;#34;menlo&amp;#34; , monospace ; font-size: 9pt&quot;&gt;&lt;pre style=&quot;font-family: &amp;#34;menlo&amp;#34; , monospace ; font-size: 9pt&quot;&gt;&lt;span style=&quot;color: #c3e88d&quot;&gt;&quot;@open-rpc/schema-utils-js@^1.13.0&quot;&lt;/span&gt;, &lt;span style=&quot;color: #c3e88d&quot;&gt;&quot;@open-rpc/schema-utils-js@^1.13.3&quot;&lt;/span&gt;&lt;/pre&gt;&lt;/pre&gt;&lt;/pre&gt;&lt;/pre&gt;&lt;/pre&gt;&lt;/pre&gt;" style="rounded=1;whiteSpace=wrap;html=1;fillColor=#f8cecc;strokeColor=#b85450;" vertex="1" parent="1">
          <mxGeometry x="1460" y="800" width="550" height="40" as="geometry" />
        </mxCell>
        <mxCell id="ojHs-oNR0LZqK26bkBzj-80" style="edgeStyle=orthogonalEdgeStyle;rounded=0;orthogonalLoop=1;jettySize=auto;html=1;exitX=0.5;exitY=1;exitDx=0;exitDy=0;entryX=0.5;entryY=0;entryDx=0;entryDy=0;" edge="1" parent="1" source="ojHs-oNR0LZqK26bkBzj-76" target="ojHs-oNR0LZqK26bkBzj-78">
          <mxGeometry relative="1" as="geometry" />
        </mxCell>
        <mxCell id="ojHs-oNR0LZqK26bkBzj-76" value="&lt;pre style=&quot;background-color: #212121 ; color: #eeffff ; font-family: &amp;#34;menlo&amp;#34; , monospace ; font-size: 9.0pt&quot;&gt;&lt;pre style=&quot;font-family: &amp;#34;menlo&amp;#34; , monospace ; font-size: 9pt&quot;&gt;&lt;pre style=&quot;font-family: &amp;#34;menlo&amp;#34; , monospace ; font-size: 9pt&quot;&gt;&lt;pre style=&quot;font-family: &amp;#34;menlo&amp;#34; , monospace ; font-size: 9pt&quot;&gt;&lt;pre style=&quot;font-family: &amp;#34;menlo&amp;#34; , monospace ; font-size: 9pt&quot;&gt;&lt;pre style=&quot;font-family: &amp;#34;menlo&amp;#34; , monospace ; font-size: 9pt&quot;&gt;&lt;pre style=&quot;font-family: &amp;#34;menlo&amp;#34; , monospace ; font-size: 9pt&quot;&gt;&lt;pre style=&quot;font-family: &amp;#34;menlo&amp;#34; , monospace ; font-size: 9pt&quot;&gt;&lt;span style=&quot;color: #c3e88d&quot;&gt;@open-rpc/server-js@^1.7.1&lt;/span&gt;&lt;/pre&gt;&lt;/pre&gt;&lt;/pre&gt;&lt;/pre&gt;&lt;/pre&gt;&lt;/pre&gt;&lt;/pre&gt;&lt;/pre&gt;" style="rounded=1;whiteSpace=wrap;html=1;fillColor=#f8cecc;strokeColor=#b85450;" vertex="1" parent="1">
          <mxGeometry x="2068" y="760" width="202" height="40" as="geometry" />
        </mxCell>
        <mxCell id="ojHs-oNR0LZqK26bkBzj-78" value="&lt;pre style=&quot;background-color: #212121 ; color: #eeffff ; font-family: &amp;#34;menlo&amp;#34; , monospace ; font-size: 9.0pt&quot;&gt;&lt;pre style=&quot;font-family: &amp;#34;menlo&amp;#34; , monospace ; font-size: 9pt&quot;&gt;&lt;pre style=&quot;font-family: &amp;#34;menlo&amp;#34; , monospace ; font-size: 9pt&quot;&gt;&lt;pre style=&quot;font-family: &amp;#34;menlo&amp;#34; , monospace ; font-size: 9pt&quot;&gt;&lt;pre style=&quot;font-family: &amp;#34;menlo&amp;#34; , monospace ; font-size: 9pt&quot;&gt;&lt;pre style=&quot;font-family: &amp;#34;menlo&amp;#34; , monospace ; font-size: 9pt&quot;&gt;&lt;pre style=&quot;font-family: &amp;#34;menlo&amp;#34; , monospace ; font-size: 9pt&quot;&gt;&lt;span style=&quot;color: #c3e88d&quot;&gt;@open-rpc/mock-server&lt;/span&gt;&lt;/pre&gt;&lt;/pre&gt;&lt;/pre&gt;&lt;/pre&gt;&lt;/pre&gt;&lt;/pre&gt;&lt;/pre&gt;" style="rounded=1;whiteSpace=wrap;html=1;fillColor=#f8cecc;strokeColor=#b85450;" vertex="1" parent="1">
          <mxGeometry x="2084" y="860" width="170" height="40" as="geometry" />
        </mxCell>
      </root>
    </mxGraphModel>
  </diagram>
</mxfile>
